<svg width="162" height="103" viewBox="0 0 162 103" fill="none" xmlns="http://www.w3.org/2000/svg">
<rect width="162" height="103" fill="#F5F5F5"/>
<g clip-path="url(#clip0_7_3)">
<rect width="162" height="103" fill="white"/>
<g filter="url(#filter0_d_7_3)">
<path d="M24.5 25.4409H114.553V88.6237H24.5V25.4409Z" fill="white"/>
</g>
<path d="M49.9375 23.625C50.1875 24.5417 50.1458 25.5 49.8125 26.5C49.4792 27.4583 49.1042 28.4792 48.6875 29.5625C48.4375 30.2708 48.2708 30.875 48.1875 31.375C48.1042 31.8333 47.9583 32.3542 47.75 32.9375C47.625 33.3542 47.4583 33.8333 47.25 34.375C47.0833 34.875 47.1042 35.3125 47.3125 35.6875C47.3958 35.7708 47.5208 35.8542 47.6875 35.9375C47.8958 36.0208 48.1042 36.0833 48.3125 36.125C49.0625 36.2083 49.625 36.2083 50 36.125C50.375 36 50.9375 35.9583 51.6875 36C52.1875 36.0417 52.7083 36.125 53.25 36.25C53.7917 36.3333 54.3125 36.3958 54.8125 36.4375C55.3125 36.4792 55.7708 36.4583 56.1875 36.375C56.6458 36.25 57.0208 35.9583 57.3125 35.5C57.3958 35.1667 57.4583 34.8958 57.5 34.6875C57.5833 34.4792 57.6458 34.2917 57.6875 34.125C57.7708 33.9167 57.8333 33.7292 57.875 33.5625C57.9583 33.3542 58.0417 33.0833 58.125 32.75C58.2083 32.5417 58.25 32.3542 58.25 32.1875C58.2917 31.9792 58.3542 31.7708 58.4375 31.5625C58.5208 31.2708 58.6667 31.0208 58.875 30.8125C59.0833 30.6042 59.2292 30.3958 59.3125 30.1875C59.7292 29.3958 60 28.5833 60.125 27.75C60.25 26.9167 60.5 26.0833 60.875 25.25C61.7917 25 62.7917 24.8542 63.875 24.8125C65 24.7292 65.8958 24.8125 66.5625 25.0625C66.6875 25.7708 66.5625 26.3958 66.1875 26.9375C65.8125 27.4792 65.5208 27.9792 65.3125 28.4375C65.1875 28.7292 65.1042 29.0208 65.0625 29.3125C65.0208 29.5625 64.9583 29.8542 64.875 30.1875C64.7917 30.3958 64.6875 30.625 64.5625 30.875C64.4375 31.0833 64.3333 31.3333 64.25 31.625C64.1667 31.875 64.1042 32.125 64.0625 32.375C64.0625 32.625 64.0208 32.875 63.9375 33.125C63.7292 33.75 63.5417 34.1875 63.375 34.4375C63.2083 34.6875 63.1667 35.1458 63.25 35.8125C63.7917 36.0208 64.3542 36.1042 64.9375 36.0625C65.5625 35.9792 66.1667 35.9167 66.75 35.875C67.3333 35.7917 67.8958 35.7708 68.4375 35.8125C68.9792 35.8125 69.4792 36 69.9375 36.375C70.0625 36.9583 69.9792 37.4583 69.6875 37.875C69.4375 38.25 69.2083 38.6042 69 38.9375C68.6667 39.5208 68.3542 40.1042 68.0625 40.6875C67.7708 41.2292 67.2917 41.6042 66.625 41.8125C66.125 41.9792 65.6458 42.0833 65.1875 42.125C64.7708 42.125 64.3542 42.1042 63.9375 42.0625C63.5208 42.0208 63.1042 42 62.6875 42C62.2708 42 61.8542 42.0833 61.4375 42.25C61.1875 42.3333 60.9583 42.5625 60.75 42.9375C60.5417 43.2708 60.3542 43.6667 60.1875 44.125C60.0208 44.5833 59.875 45.0625 59.75 45.5625C59.625 46.0208 59.5208 46.3958 59.4375 46.6875C59.3542 47.1042 59.3125 47.4583 59.3125 47.75C59.3125 48.0417 59.3333 48.375 59.375 48.75C59.2083 49 58.9792 49.3542 58.6875 49.8125C58.4375 50.2708 58.2292 50.6042 58.0625 50.8125C58.1042 51.0208 58.1458 51.2292 58.1875 51.4375C58.2708 51.6458 58.3542 51.8542 58.4375 52.0625C59.0208 52.0625 59.5417 52.0625 60 52.0625C60.4583 52.0208 60.8958 52 61.3125 52C61.7708 51.9583 62.2292 51.9583 62.6875 52C63.1458 52 63.6875 52.0208 64.3125 52.0625C64.3958 52.2292 64.5 52.375 64.625 52.5C64.75 52.5833 64.875 52.7083 65 52.875C64.9167 53.375 64.7708 53.9375 64.5625 54.5625C64.3958 55.1875 64.1667 55.7708 63.875 56.3125C63.625 56.8125 63.3125 57.2708 62.9375 57.6875C62.5625 58.0625 62.1667 58.2917 61.75 58.375C61.5 58.4167 61.2708 58.4375 61.0625 58.4375C60.8958 58.4375 60.7292 58.4167 60.5625 58.375C60.3958 58.3333 60.2083 58.3125 60 58.3125C59.7917 58.2708 59.5208 58.25 59.1875 58.25C58.7708 58.2917 58.3333 58.375 57.875 58.5C57.4583 58.5833 56.9792 58.625 56.4375 58.625C56.1042 59.4583 55.8333 60.3333 55.625 61.25C55.4167 62.1667 55.2083 63.1042 55 64.0625C54.8333 65.0208 54.625 65.9792 54.375 66.9375C54.125 67.8542 53.7917 68.7083 53.375 69.5C53.0833 69.75 52.7292 70 52.3125 70.25C51.8958 70.5 51.4375 70.6875 50.9375 70.8125C50.4792 70.9375 50 70.9792 49.5 70.9375C49.0417 70.9375 48.625 70.7708 48.25 70.4375C48.0833 69.9375 47.9583 69.4583 47.875 69C47.7917 68.5417 47.8333 68.0208 48 67.4375C48.0833 67.1042 48.2292 66.8125 48.4375 66.5625C48.6875 66.3125 48.8542 66.0208 48.9375 65.6875C49.0208 65.3542 49.0417 65 49 64.625C48.9583 64.25 48.9583 63.8958 49 63.5625C49.1667 62.7292 49.3542 62 49.5625 61.375C49.8125 60.75 50.0417 60.0625 50.25 59.3125C49.4167 59.3125 48.625 59.2917 47.875 59.25C47.125 59.2083 46.375 59.1875 45.625 59.1875C44.875 59.1458 44.1042 59.1458 43.3125 59.1875C42.5625 59.2292 41.7708 59.3333 40.9375 59.5C40.6042 60.25 40.3125 60.9375 40.0625 61.5625C39.8542 62.1875 39.6042 62.8958 39.3125 63.6875C38.8958 64.7292 38.5833 65.8125 38.375 66.9375C38.2083 68.0208 37.7917 68.9583 37.125 69.75C36.5833 69.6667 36.1042 69.6667 35.6875 69.75C35.2708 69.8333 34.875 69.9167 34.5 70C34.125 70.0833 33.7708 70.125 33.4375 70.125C33.1042 70.125 32.75 70 32.375 69.75C32.0833 69.5417 31.9167 69.25 31.875 68.875C31.8333 68.5 31.75 68.125 31.625 67.75C32.0417 66.75 32.3958 65.8125 32.6875 64.9375C32.9792 64.0208 33.3333 63.0625 33.75 62.0625C33.875 61.7292 34.0417 61.4375 34.25 61.1875C34.4583 60.9375 34.5208 60.5833 34.4375 60.125C33.9375 60 33.4583 59.9583 33 60C32.5417 60 32.0833 60.0208 31.625 60.0625C31.2083 60.0625 30.75 60.0833 30.25 60.125C29.7917 60.125 29.2917 60.0833 28.75 60C28.5833 59.8333 28.5 59.6667 28.5 59.5C28.5 59.3333 28.5417 59.1667 28.625 59C28.6667 58.7917 28.7292 58.5833 28.8125 58.375C28.8542 58.1667 28.875 57.9583 28.875 57.75C28.875 57.5833 28.8333 57.4375 28.75 57.3125C28.625 57.1458 28.5625 56.9792 28.5625 56.8125C28.5625 56.3125 28.7083 55.8125 29 55.3125C29.3333 54.7708 29.5833 54.2917 29.75 53.875C30.375 53.7917 31.0625 53.7917 31.8125 53.875C32.5625 53.9167 33.1875 53.7917 33.6875 53.5C34.3125 53.6667 34.8542 53.75 35.3125 53.75C35.8125 53.7083 36.2708 53.4792 36.6875 53.0625C36.7292 52.4792 36.8333 51.8125 37 51.0625C37.2083 50.2708 37.4375 49.5 37.6875 48.75C37.9375 47.9583 38.1667 47.2083 38.375 46.5C38.625 45.75 38.8333 45.1042 39 44.5625C39.125 44.1042 39.2917 43.6458 39.5 43.1875C39.75 42.6875 39.6458 42.2083 39.1875 41.75C38.3542 41.9167 37.7083 41.9375 37.25 41.8125C36.8333 41.6458 36.2292 41.5833 35.4375 41.625C34.8542 41.6667 34.2917 41.75 33.75 41.875C33.2083 41.9583 32.7083 41.7708 32.25 41.3125C32.25 40.8542 32.2708 40.375 32.3125 39.875C32.3542 39.3333 32.4167 38.8125 32.5 38.3125C32.625 37.8125 32.7917 37.375 33 37C33.25 36.5833 33.5833 36.2917 34 36.125C34.5833 36.3333 35.1458 36.375 35.6875 36.25C36.2292 36.0833 36.8333 35.9792 37.5 35.9375C38 35.8958 38.4375 35.9583 38.8125 36.125C39.1875 36.25 39.5208 36.3542 39.8125 36.4375C40.1042 36.5208 40.375 36.5417 40.625 36.5C40.9167 36.4583 41.2083 36.2292 41.5 35.8125C41.75 35.4792 41.8333 35.1458 41.75 34.8125C41.6667 34.4375 41.7292 34.0208 41.9375 33.5625C42.1042 33.1875 42.25 33 42.375 33C42.5417 32.9583 42.7292 32.7708 42.9375 32.4375C42.9792 32.1875 42.8958 32 42.6875 31.875C42.5208 31.7083 42.4167 31.4792 42.375 31.1875C42.3333 30.7292 42.4375 30.2292 42.6875 29.6875C42.9792 29.1458 43.2083 28.5833 43.375 28C43.5833 27.375 43.7292 26.7708 43.8125 26.1875C43.8958 25.6042 44.0833 25.1458 44.375 24.8125C44.75 24.6042 45.1667 24.5208 45.625 24.5625C46.125 24.5625 46.5625 24.5208 46.9375 24.4375C47.1875 24.3958 47.4375 24.3125 47.6875 24.1875C47.9375 24.0625 48.1875 23.9375 48.4375 23.8125C48.6875 23.6875 48.9375 23.6042 49.1875 23.5625C49.4375 23.4792 49.6875 23.5 49.9375 23.625ZM53.25 42.125C52.6667 42.0833 52.125 42.0417 51.625 42C51.125 41.9583 50.625 41.9375 50.125 41.9375C49.625 41.8958 49.0833 41.8958 48.5 41.9375C47.9583 41.9375 47.3333 41.9792 46.625 42.0625C46.5417 42.2292 46.3958 42.3333 46.1875 42.375C46.0208 42.375 45.8958 42.4375 45.8125 42.5625C45.4792 43.1458 45.1667 43.8958 44.875 44.8125C44.5833 45.7292 44.3125 46.6875 44.0625 47.6875C43.8125 48.6458 43.5625 49.6042 43.3125 50.5625C43.1042 51.5208 42.875 52.3333 42.625 53C43.0417 53.2083 43.375 53.3333 43.625 53.375C43.9167 53.375 44.3333 53.3542 44.875 53.3125C45.2917 53.3125 45.8333 53.3333 46.5 53.375C47.1667 53.375 47.8333 53.375 48.5 53.375C49.2083 53.3333 49.8333 53.2917 50.375 53.25C50.9583 53.1667 51.375 53.0417 51.625 52.875C51.7917 52.75 51.9792 52.4583 52.1875 52C52.4375 51.5 52.6042 51.1458 52.6875 50.9375C52.8958 50.3542 53.1042 49.625 53.3125 48.75C53.5208 47.875 53.7292 47.125 53.9375 46.5C54.1875 45.9167 54.4583 45.25 54.75 44.5C55.0417 43.75 55.2083 43.0833 55.25 42.5C55.0417 42.1667 54.7292 42.0417 54.3125 42.125C53.9375 42.1667 53.5833 42.1667 53.25 42.125Z" fill="url(#paint0_linear_7_3)"/>
<path d="M88.875 39.5C89.125 39.375 89.4583 39.3333 89.875 39.375C90.3333 39.375 90.7292 39.3125 91.0625 39.1875C91.3125 39.1042 91.5417 39.1042 91.75 39.1875C92 39.2292 92.2708 39.2292 92.5625 39.1875C92.7708 39.1458 92.9375 39.1667 93.0625 39.25C93.1875 39.2917 93.3125 39.3542 93.4375 39.4375C93.5625 39.5208 93.7083 39.6042 93.875 39.6875C94.0833 39.7708 94.3542 39.8333 94.6875 39.875C94.8125 39.9167 95 40.0417 95.25 40.25C95.5417 40.4167 95.8333 40.625 96.125 40.875C96.4583 41.125 96.7708 41.375 97.0625 41.625C97.3542 41.8333 97.5833 42 97.75 42.125C98.7083 42.75 99.5625 43.7083 100.312 45C101.062 46.25 101.5 47.6042 101.625 49.0625C101.708 49.8125 101.812 50.4583 101.938 51C102.062 51.5 101.854 51.9167 101.312 52.25C101.688 52.9167 101.875 53.5208 101.875 54.0625C101.917 54.5625 101.896 55.2292 101.812 56.0625C101.688 57.1042 101.521 57.9792 101.312 58.6875C101.104 59.3958 100.812 60.2292 100.438 61.1875C100.188 61.6458 99.75 62.125 99.125 62.625C98.5 63.125 98.0417 63.6458 97.75 64.1875C97.2083 65.1458 96.625 65.9375 96 66.5625C95.4167 67.1458 94.6667 67.7083 93.75 68.25C92.1667 69.25 90.4792 70.0417 88.6875 70.625C86.8958 71.25 84.6667 71.4583 82 71.25C81.5 71.2083 81 71.125 80.5 71C80.0417 70.875 79.5625 70.7708 79.0625 70.6875C78.5625 70.6042 78.0625 70.5208 77.5625 70.4375C77.0625 70.3958 76.6042 70.2917 76.1875 70.125C75.9375 70 75.625 69.7917 75.25 69.5C74.9167 69.2083 74.5625 68.875 74.1875 68.5C73.8542 68.125 73.5417 67.7708 73.25 67.4375C72.9583 67.0625 72.7292 66.75 72.5625 66.5C72.4792 66.3333 72.3958 66.125 72.3125 65.875C72.2292 65.625 72.125 65.3958 72 65.1875C71.7917 64.7708 71.6042 64.4375 71.4375 64.1875C71.3125 63.8958 71.3125 63.4792 71.4375 62.9375C71.1042 62.5208 70.8958 62.1667 70.8125 61.875C70.7292 61.5833 70.6458 61.1042 70.5625 60.4375C70.5208 60.2292 70.5208 60.0208 70.5625 59.8125C70.6458 59.5625 70.6458 59.3125 70.5625 59.0625C70.5208 58.7292 70.4375 58.375 70.3125 58C70.2292 57.625 70.1667 57.2292 70.125 56.8125C70.0833 56.2708 70.0417 55.75 70 55.25C69.9583 54.7083 70 54.1667 70.125 53.625C70.2083 53.2917 70.3125 52.9792 70.4375 52.6875C70.6042 52.3542 70.6875 52.0208 70.6875 51.6875C70.6875 51.5208 70.6458 51.3542 70.5625 51.1875C70.5208 51.0208 70.5 50.8542 70.5 50.6875C70.4583 49.9375 70.5625 49.25 70.8125 48.625C71.1042 48 71.4375 47.3958 71.8125 46.8125C72.1875 46.1875 72.5625 45.6042 72.9375 45.0625C73.3125 44.4792 73.5833 43.875 73.75 43.25C74.0417 43 74.25 42.7292 74.375 42.4375C74.5417 42.1458 74.6875 41.8542 74.8125 41.5625C74.9375 41.2292 75.0833 40.9167 75.25 40.625C75.4167 40.2917 75.625 40 75.875 39.75C76.4583 39.0833 77.0417 38.4792 77.625 37.9375C78.25 37.3542 78.875 36.7292 79.5 36.0625C79.8333 35.7292 80.125 35.4167 80.375 35.125C80.6667 34.7917 80.9792 34.4583 81.3125 34.125C81.6458 33.7917 82 33.5208 82.375 33.3125C82.7917 33.1042 83.1667 32.8542 83.5 32.5625C84.0833 32.1042 84.6458 31.625 85.1875 31.125C85.7708 30.625 86.4375 30.1875 87.1875 29.8125C87.3958 29.7292 87.5833 29.6667 87.75 29.625C87.9583 29.5417 88.1667 29.4583 88.375 29.375C89.1667 28.9583 90 28.5833 90.875 28.25C91.75 27.9167 92.6458 27.5833 93.5625 27.25C94.2708 26.9583 94.9167 26.625 95.5 26.25C96.125 25.8333 96.7917 25.5208 97.5 25.3125C98.2083 25.1042 98.9167 24.8958 99.625 24.6875C100.333 24.4792 101.042 24.2708 101.75 24.0625C102.5 23.8542 103.25 23.6875 104 23.5625C104.75 23.4375 105.479 23.2708 106.188 23.0625C106.479 22.9792 106.854 22.9792 107.312 23.0625C107.771 23.1458 108.021 23.3542 108.062 23.6875C108.104 23.8958 108.083 24.1875 108 24.5625C107.958 24.8958 107.875 25.25 107.75 25.625C107.625 26 107.479 26.3333 107.312 26.625C107.146 26.9167 107 27.1042 106.875 27.1875C106.167 27.5625 105.375 27.8958 104.5 28.1875C103.667 28.4375 103.083 28.7917 102.75 29.25C102.333 29.4167 101.979 29.6042 101.688 29.8125C101.438 30.0208 101.188 30.25 100.938 30.5C100.688 30.7083 100.417 30.9375 100.125 31.1875C99.8333 31.3958 99.4792 31.5833 99.0625 31.75C98.6042 31.9583 98.1458 32.25 97.6875 32.625C97.2292 32.9583 96.7708 33.2083 96.3125 33.375C96.1042 33.4583 95.8333 33.6042 95.5 33.8125C95.2083 34.0208 94.8958 34.2708 94.5625 34.5625C94.2292 34.8125 93.9375 35.0625 93.6875 35.3125C93.4375 35.5625 93.2708 35.75 93.1875 35.875C92.6458 36 92.2917 36.2292 92.125 36.5625C91.9583 36.8542 91.6458 37.1458 91.1875 37.4375C91.0208 37.5208 90.875 37.5833 90.75 37.625C90.625 37.625 90.5 37.6667 90.375 37.75C90.2083 37.8333 90.1042 37.9792 90.0625 38.1875C90.0208 38.3542 89.9375 38.5 89.8125 38.625L88.875 39.5ZM90.625 51.9375C90.6667 51.1875 90.6458 50.4167 90.5625 49.625C90.5208 48.7917 90.3958 48.0625 90.1875 47.4375C89.9792 46.7708 89.6667 46.2917 89.25 46C88.8333 45.6667 88.2917 45.625 87.625 45.875C87 46.125 86.4583 46.3958 86 46.6875C85.5417 46.9792 85.1458 47.3333 84.8125 47.75C84.4792 48.125 84.1667 48.5625 83.875 49.0625C83.5833 49.5625 83.25 50.1458 82.875 50.8125C82.4583 51.5208 82.1875 52.1458 82.0625 52.6875C81.9375 53.1875 81.7708 53.8958 81.5625 54.8125C81.4375 55.5625 81.3333 56.3958 81.25 57.3125C81.2083 58.1875 81.2083 59.0625 81.25 59.9375C81.3333 60.8125 81.4583 61.6042 81.625 62.3125C81.8333 63.0208 82.1042 63.5625 82.4375 63.9375C82.6875 64.2708 83.0417 64.5625 83.5 64.8125C83.9583 65.0625 84.4375 65.1042 84.9375 64.9375C85.1458 64.8542 85.3958 64.7083 85.6875 64.5C85.9792 64.25 86.2292 64.0208 86.4375 63.8125C86.6458 63.6042 86.875 63.3542 87.125 63.0625C87.375 62.7708 87.5833 62.5 87.75 62.25C87.9583 61.9167 88.1458 61.5 88.3125 61C88.4792 60.5 88.6667 60.0208 88.875 59.5625C88.9583 59.2708 89.0833 59.0208 89.25 58.8125C89.4167 58.5625 89.5417 58.3333 89.625 58.125C89.75 57.7917 89.8333 57.4792 89.875 57.1875C89.9167 56.8958 89.9792 56.6042 90.0625 56.3125C90.1875 56.0625 90.3333 55.8542 90.5 55.6875C90.6667 55.5208 90.7917 55.2708 90.875 54.9375C90.6667 54.4792 90.5625 54.0417 90.5625 53.625C90.5625 53.1667 90.5833 52.6042 90.625 51.9375Z" fill="url(#paint1_linear_7_3)"/>
<g filter="url(#filter1_d_7_3)">
<rect x="37.4737" y="54.6022" width="57.5207" height="2.43011" fill="white"/>
</g>
</g>
<defs>
<filter id="filter0_d_7_3" x="20.5" y="25.4409" width="98.0526" height="71.1828" filterUnits="userSpaceOnUse" color-interpolation-filters="sRGB">
<feFlood flood-opacity="0" result="BackgroundImageFix"/>
<feColorMatrix in="SourceAlpha" type="matrix" values="0 0 0 0 0 0 0 0 0 0 0 0 0 0 0 0 0 0 127 0" result="hardAlpha"/>
<feOffset dy="4"/>
<feGaussianBlur stdDeviation="2"/>
<feComposite in2="hardAlpha" operator="out"/>
<feColorMatrix type="matrix" values="0 0 0 0 0 0 0 0 0 0 0 0 0 0 0 0 0 0 0.25 0"/>
<feBlend mode="normal" in2="BackgroundImageFix" result="effect1_dropShadow_7_3"/>
<feBlend mode="normal" in="SourceGraphic" in2="effect1_dropShadow_7_3" result="shape"/>
</filter>
<filter id="filter1_d_7_3" x="33.4737" y="54.6022" width="65.5207" height="10.4301" filterUnits="userSpaceOnUse" color-interpolation-filters="sRGB">
<feFlood flood-opacity="0" result="BackgroundImageFix"/>
<feColorMatrix in="SourceAlpha" type="matrix" values="0 0 0 0 0 0 0 0 0 0 0 0 0 0 0 0 0 0 127 0" result="hardAlpha"/>
<feOffset dy="4"/>
<feGaussianBlur stdDeviation="2"/>
<feComposite in2="hardAlpha" operator="out"/>
<feColorMatrix type="matrix" values="0 0 0 0 0 0 0 0 0 0 0 0 0 0 0 0 0 0 0.25 0"/>
<feBlend mode="normal" in2="BackgroundImageFix" result="effect1_dropShadow_7_3"/>
<feBlend mode="normal" in="SourceGraphic" in2="effect1_dropShadow_7_3" result="shape"/>
</filter>
<linearGradient id="paint0_linear_7_3" x1="68" y1="6" x2="68" y2="119" gradientUnits="userSpaceOnUse">
<stop offset="0.419337"/>
<stop offset="0.518144" stop-color="#666666"/>
</linearGradient>
<linearGradient id="paint1_linear_7_3" x1="68" y1="6" x2="68" y2="119" gradientUnits="userSpaceOnUse">
<stop stop-color="#98AFC7"/>
<stop offset="1" stop-color="#8595AC"/>
</linearGradient>
<clipPath id="clip0_7_3">
<rect width="162" height="103" fill="white"/>
</clipPath>
</defs>
</svg>
